#!OML:ASF F:\VICON\USERDATA\INSTALL\rory3\rory3.ASF
:FULLY-SPECIFIED
:DEGREES
16
root 0.921721 17.8502 -14.8129 7.59949 -4.48278 0.328546
lowerback 6.089 -0.0381017 -2.01039
upperback -0.400492 -0.111507 2.26265
thorax -3.82393 0.00814968 3.48617
lowerneck -16.5406 -2.8488 -9.91277
upperneck 26.786 -2.54191 4.73108
head 11.7012 -1.56456 3.06709
rclavicle -1.26228e-014 -2.62396e-014
rhumerus -34.5921 -10.1012 -79.2633
rradius 35.1153
rwrist 4.09561
rhand -9.04129 17.7237
rfingers 7.12502
rthumb 16.9067 -11.5604
lclavicle -1.26228e-014 -2.62396e-014
lhumerus -35.0276 10.4784 82.8489
lradius 32.1279
lwrist -5.97167
lhand -14.5914 27.1424
lfingers 7.12502
lthumb 11.5588 56.8037
rfemur -11.9343 6.56297 22.3675
rtibia 20.8891
rfoot -11.1334 -6.5189
rtoes 6.46444
lfemur -11.8778 -1.95414 -22.381
ltibia 19.7679
lfoot -11.9306 4.9009
ltoes 1.6473
17
root 0.924019 17.8492 -14.8115 7.60622 -4.47929 0.411447
lowerback 6.04945 -0.0580203 -2.05961
upperback -0.345473 -0.142672 2.23604
thorax -3.74215 -0.00866094 3.48833
lowerneck -16.5828 -2.87549 -9.94223
upperneck 26.7808 -2.5718 4.74862
head 11.7111 -1.57827 3.074
rclavicle -5.26779e-015 -8.74653e-015
rhumerus -34.5101 -10.0134 -79.3309
rradius 35.1257
rwrist 4.01316
rhand -8.84475 17.0924
rfingers 7.12502
rthumb 17.0959 -12.1754
lclavicle -5.26779e-015 -8.74653e-015
lhumerus -34.8787 10.8969 82.6067
lradius 32.0514
lwrist -7.00838
lhand -13.1281 28.2913
lfingers 7.12502
lthumb 12.9697 57.8682
rfemur -11.9835 6.54549 22.2732
rtibia 20.9976
rfoot -11.1745 -6.51682
rtoes 6.40996
lfemur -11.8287 -1.97839 -22.4686
ltibia 19.706
lfoot -11.9498 4.86885
ltoes 1.917
18
root 0.927835 17.8469 -14.8079 7.5708 -4.54361 0.432715
lowerback 6.03799 -0.0358142 -2.04391
upperback -0.233404 -0.113154 2.22287
thorax -3.6217 0.00218299 3.46199
lowerneck -16.8876 -2.93571 -9.89865
upperneck 26.8328 -2.61803 4.68168
head 11.7957 -1.60082 3.03466
rclavicle 6.65929e-015 -1.51076e-014
rhumerus -34.3387 -10.0609 -79.3448
rradius 35.0699
rwrist 3.90492
rhand -7.9244 14.6823
rfingers 7.12502
rthumb 17.9816 -14.5065
lclavicle 6.65929e-015 -1.51076e-014
lhumerus -34.6599 10.7124 82.8216
lradius 32.0974
lwrist -6.24033
lhand -14.3365 27.6397
lfingers 7.12502
lthumb 11.8046 57.287
rfemur -11.9769 6.58639 22.2372
rtibia 21.0843
rfoot -11.2496 -6.54355
rtoes 6.3669
lfemur -11.7364 -2.03514 -22.5089
ltibia 19.6292
lfoot -11.9764 4.98785
ltoes 2.06238
19
root 0.929302 17.8447 -14.8079 7.4577 -4.72825 0.500417
lowerback 6.15106 0.0348703 -2.11245
upperback -0.199824 -0.0273122 2.17063
thorax -3.65696 0.045813 3.43919
lowerneck -16.8747 -2.9529 -9.89202
upperneck 26.859 -2.65642 4.71442
head 11.8068 -1.61389 3.04067
rclavicle -1.58034e-014 -7.95139e-016
rhumerus -34.3467 -10.1184 -79.3614
rradius 35.1
rwrist 3.99437
rhand -8.54841 17.6468
rfingers 7.12502
rthumb 17.3811 -11.5961
lclavicle -1.58034e-014 -7.95139e-016
lhumerus -34.6632 10.796 82.6924
lradius 32.308
lwrist -7.30421
lhand -13.2066 28.7474
lfingers 7.12502
lthumb 12.8941 58.329
rfemur -11.9143 6.68365 22.1467
rtibia 21.1326
rfoot -11.2686 -6.47691
rtoes 6.30983
lfemur -11.552 -2.03705 -22.6099
ltibia 19.5532
lfoot -11.9957 5.14683
ltoes 2.12428
20
root 0.930452 17.8474 -14.8055 7.40687 -4.91265 0.554995
lowerback 6.20478 0.084384 -2.18357
upperback -0.241462 0.0316585 2.13171
thorax -3.7349 0.0779471 3.4341
lowerneck -16.6839 -2.90913 -9.89672
upperneck 26.8921 -2.6268 4.75553
head 11.7787 -1.59874 3.06271
rclavicle -1.63003e-014 1.35174e-014
rhumerus -34.4062 -10.0322 -79.4166
rradius 35.0657
rwrist 4.13492
rhand -8.93639 18.1698
rfingers 7.12502
rthumb 17.0077 -11.1057
lclavicle -1.63003e-014 1.35174e-014
lhumerus -34.8344 10.7457 82.6241
lradius 32.2216
lwrist -7.0191
lhand -14.1899 26.8423
lfingers 7.12502
lthumb 11.946 56.4814
rfemur -11.8769 6.70085 22.0648
rtibia 21.1339
rfoot -11.274 -6.31718
rtoes 6.318
lfemur -11.4369 -2.00761 -22.6972
ltibia 19.533
lfoot -12.0231 5.27965
ltoes 2.08261
21
root 0.931068 17.849 -14.8015 7.42988 -5.05138 0.520985
lowerback 6.18361 0.131421 -2.16345
upperback -0.243401 0.0959666 2.12699
thorax -3.72981 0.10943 3.41167
lowerneck -16.711 -2.85672 -9.79059
upperneck 26.936 -2.56631 4.70447
head 11.793 -1.56774 3.03544
rclavicle 1.15295e-014 9.54166e-015
rhumerus -34.3837 -10.0147 -79.4422
rradius 35.0503
rwrist 4.11814
rhand -8.95713 18.0029
rfingers 7.12502
rthumb 16.9877 -11.2743
lclavicle 1.15295e-014 9.54166e-015
lhumerus -34.879 10.867 82.4994
lradius 32.2527
lwrist -7.3422
lhand -13.9032 26.927
lfingers 7.12502
lthumb 12.2224 56.5498
rfemur -11.8787 6.78185 22.0819
rtibia 21.094
rfoot -11.289 -6.23671
rtoes 6.21632
lfemur -11.4598 -1.97723 -22.682
ltibia 19.5455
lfoot -11.9998 5.42062
ltoes 1.72319
22
root 0.931351 17.8508 -14.8011 7.46346 -5.04765 0.497324
lowerback 6.17844 0.146579 -2.12608
upperback -0.235271 0.118727 2.12146
thorax -3.72004 0.119708 3.38256
lowerneck -16.7477 -2.82567 -9.68058
upperneck 26.9763 -2.52402 4.61234
head 11.8093 -1.54944 2.98907
rclavicle 1.03368e-014 -2.14687e-014
rhumerus -34.3185 -10.1327 -79.4147
rradius 35.0355
rwrist 4.01918
rhand -8.41825 17.4068
rfingers 7.12502
rthumb 17.5064 -11.825
lclavicle 1.03368e-014 -2.14687e-014
lhumerus -34.8515 10.9092 82.4065
lradius 32.3788
lwrist -7.90174
lhand -12.9817 28.6461
lfingers 7.12502
lthumb 13.1108 58.214
rfemur -11.8797 6.83704 22.106
rtibia 21.038
rfoot -11.2608 -6.30239
rtoes 6.33918
lfemur -11.5451 -1.77823 -22.6782
ltibia 19.5716
lfoot -11.9478 5.29515
ltoes 0.844839
23
root 0.932782 17.8526 -14.8 7.49033 -4.97979 0.451591
lowerback 6.14968 0.137681 -2.06365
upperback -0.226403 0.112175 2.13386
thorax -3.69402 0.114844 3.36055
lowerneck -16.7612 -2.84492 -9.64624
upperneck 27.0526 -2.55469 4.58784
head 11.8436 -1.56412 2.97083
rclavicle 0 -7.15625e-015
rhumerus -34.2478 -10.1825 -79.4162
rradius 35.0065
rwrist 3.94364
rhand -8.09339 16.6016
rfingers 7.12502
rthumb 17.819 -12.602
lclavicle 0 -7.15625e-015
lhumerus -34.7768 10.6493 82.5661
lradius 32.2724
lwrist -6.72581
lhand -14.5088 26.8328
lfingers 7.12502
lthumb 11.6385 56.4896
rfemur -11.8744 6.7724 22.1565
rtibia 20.9962
rfoot -11.2168 -6.29507
rtoes 6.32316
lfemur -11.5735 -1.77604 -22.6255
ltibia 19.6306
lfoot -11.9833 5.2011
ltoes 1.68953
